HIERARCHY
ROOT root
{
	OFFSET 0.000000 0.054209 0.736571
	CHANNELS 6 Xposition Yposition Zposition Xrotation Yrotation Zrotation
	JOINT spine04
	{
		OFFSET 0.000000 -0.030951 0.078753
		CHANNELS 6 Xposition Yposition Zposition Xrotation Yrotation Zrotation
		JOINT spine02
		{
			OFFSET 0.000000 -0.000238 0.104623
			CHANNELS 6 Xposition Yposition Zposition Xrotation Yrotation Zrotation
			JOINT spine01
			{
				OFFSET 0.000000 0.017421 0.109292
				CHANNELS 3 Xrotation Yrotation Zrotation
				JOINT neck01
				{
					OFFSET 0.000000 -0.049753 0.167208
					CHANNELS 6 Xposition Yposition Zposition Xrotation Yrotation Zrotation
					JOINT neck02
					{
						OFFSET 0.000000 0.005512 0.021217
						CHANNELS 3 Xrotation Yrotation Zrotation
						JOINT jaw
						{
							OFFSET 0.000000 -0.043573 0.063270
							CHANNELS 6 Xposition Yposition Zposition Xrotation Yrotation Zrotation
							End Site
							{
								OFFSET 0.000000 -0.008973 0.006556
							}
						}
						JOINT eye.L
						{
							OFFSET 0.023675 -0.098122 0.090003
							CHANNELS 3 Xrotation Yrotation Zrotation
							End Site
							{
								OFFSET 0.001819 -0.030370 -0.004421
							}
						}
						JOINT orbicularis03.L
						{
							OFFSET 0.023675 -0.098122 0.090003
							CHANNELS 3 Xrotation Yrotation Zrotation
							End Site
							{
								OFFSET 0.001761 -0.029014 0.005250
							}
						}
						JOINT eye.R
						{
							OFFSET -0.023674 -0.098122 0.090003
							CHANNELS 3 Xrotation Yrotation Zrotation
							End Site
							{
								OFFSET -0.001819 -0.030370 -0.004421
							}
						}
						JOINT orbicularis03.R
						{
							OFFSET -0.023674 -0.098122 0.090003
							CHANNELS 3 Xrotation Yrotation Zrotation
							End Site
							{
								OFFSET -0.001761 -0.029014 0.005250
							}
						}
						End Site
						{
							OFFSET 0.000000 0.005512 0.021217
						}
					}
				}
				JOINT clavicle.R
				{
					OFFSET -0.018367 -0.058464 0.107155
					CHANNELS 6 Xposition Yposition Zposition Xrotation Yrotation Zrotation
					JOINT upperarm01.R
					{
						OFFSET -0.132020 0.003642 -0.024313
						CHANNELS 6 Xposition Yposition Zposition Xrotation Yrotation Zrotation
						JOINT lowerarm01.R
						{
							OFFSET -0.133638 0.001770 -0.153088
							CHANNELS 6 Xposition Yposition Zposition Xrotation Yrotation Zrotation
							JOINT wrist.R
							{
								OFFSET -0.108574 -0.154815 -0.103768
								CHANNELS 6 Xposition Yposition Zposition Xrotation Yrotation Zrotation
								JOINT finger2-1.R
								{
									OFFSET -0.024321 -0.084906 -0.032804
									CHANNELS 3 Xrotation Yrotation Zrotation
									JOINT finger2-2.R
									{
										OFFSET -0.002927 -0.018837 -0.012653
										CHANNELS 3 Xrotation Yrotation Zrotation
										JOINT finger2-3.R
										{
											OFFSET 0.000460 -0.015088 -0.013862
											CHANNELS 3 Xrotation Yrotation Zrotation
											End Site
											{
												OFFSET 0.003042 -0.016084 -0.016987
											}
										}
									}
								}
								JOINT finger3-1.R
								{
									OFFSET -0.038828 -0.069770 -0.043126
									CHANNELS 3 Xrotation Yrotation Zrotation
									JOINT finger3-2.R
									{
										OFFSET -0.006387 -0.018854 -0.022184
										CHANNELS 3 Xrotation Yrotation Zrotation
										JOINT finger3-3.R
										{
											OFFSET -0.002379 -0.015757 -0.018305
											CHANNELS 3 Xrotation Yrotation Zrotation
											End Site
											{
												OFFSET 0.000156 -0.013802 -0.019326
											}
										}
									}
								}
								JOINT finger4-1.R
								{
									OFFSET -0.045586 -0.054771 -0.050312
									CHANNELS 3 Xrotation Yrotation Zrotation
									JOINT finger4-2.R
									{
										OFFSET -0.008217 -0.013209 -0.021152
										CHANNELS 3 Xrotation Yrotation Zrotation
										JOINT finger4-3.R
										{
											OFFSET -0.003839 -0.011895 -0.018031
											CHANNELS 3 Xrotation Yrotation Zrotation
											End Site
											{
												OFFSET -0.002024 -0.010563 -0.020894
											}
										}
									}
								}
								JOINT finger5-1.R
								{
									OFFSET -0.046820 -0.037780 -0.058682
									CHANNELS 3 Xrotation Yrotation Zrotation
									JOINT finger5-2.R
									{
										OFFSET -0.005233 -0.007322 -0.016539
										CHANNELS 3 Xrotation Yrotation Zrotation
										JOINT finger5-3.R
										{
											OFFSET -0.001524 -0.005484 -0.012548
											CHANNELS 3 Xrotation Yrotation Zrotation
											End Site
											{
												OFFSET -0.002248 -0.006725 -0.016024
											}
										}
									}
								}
								JOINT finger1-1.R
								{
									OFFSET -0.000927 -0.039280 -0.005363
									CHANNELS 3 Xrotation Yrotation Zrotation
									JOINT finger1-2.R
									{
										OFFSET 0.018386 -0.018805 -0.006895
										CHANNELS 3 Xrotation Yrotation Zrotation
										JOINT finger1-3.R
										{
											OFFSET 0.010991 -0.028095 -0.011249
											CHANNELS 3 Xrotation Yrotation Zrotation
											End Site
											{
												OFFSET 0.004840 -0.019091 -0.014527
											}
										}
									}
								}
							}
						}
					}
				}
				JOINT clavicle.L
				{
					OFFSET 0.018367 -0.058464 0.107155
					CHANNELS 6 Xposition Yposition Zposition Xrotation Yrotation Zrotation
					JOINT upperarm01.L
					{
						OFFSET 0.132020 0.003642 -0.024313
						CHANNELS 6 Xposition Yposition Zposition Xrotation Yrotation Zrotation
						JOINT lowerarm01.L
						{
							OFFSET 0.133638 0.001770 -0.153088
							CHANNELS 6 Xposition Yposition Zposition Xrotation Yrotation Zrotation
							JOINT wrist.L
							{
								OFFSET 0.108574 -0.154814 -0.103768
								CHANNELS 6 Xposition Yposition Zposition Xrotation Yrotation Zrotation
								JOINT finger2-1.L
								{
									OFFSET 0.024321 -0.084906 -0.032804
									CHANNELS 3 Xrotation Yrotation Zrotation
									JOINT finger2-2.L
									{
										OFFSET 0.002927 -0.018838 -0.012653
										CHANNELS 3 Xrotation Yrotation Zrotation
										JOINT finger2-3.L
										{
											OFFSET -0.000460 -0.015088 -0.013862
											CHANNELS 3 Xrotation Yrotation Zrotation
											End Site
											{
												OFFSET -0.003042 -0.016083 -0.016987
											}
										}
									}
								}
								JOINT finger3-1.L
								{
									OFFSET 0.038828 -0.069770 -0.043126
									CHANNELS 3 Xrotation Yrotation Zrotation
									JOINT finger3-2.L
									{
										OFFSET 0.006387 -0.018854 -0.022184
										CHANNELS 3 Xrotation Yrotation Zrotation
										JOINT finger3-3.L
										{
											OFFSET 0.002379 -0.015757 -0.018305
											CHANNELS 3 Xrotation Yrotation Zrotation
											End Site
											{
												OFFSET -0.000156 -0.013802 -0.019326
											}
										}
									}
								}
								JOINT finger4-1.L
								{
									OFFSET 0.045586 -0.054771 -0.050312
									CHANNELS 3 Xrotation Yrotation Zrotation
									JOINT finger4-2.L
									{
										OFFSET 0.008217 -0.013209 -0.021152
										CHANNELS 3 Xrotation Yrotation Zrotation
										JOINT finger4-3.L
										{
											OFFSET 0.003838 -0.011895 -0.018031
											CHANNELS 3 Xrotation Yrotation Zrotation
											End Site
											{
												OFFSET 0.002024 -0.010563 -0.020894
											}
										}
									}
								}
								JOINT finger5-1.L
								{
									OFFSET 0.046820 -0.037780 -0.058682
									CHANNELS 3 Xrotation Yrotation Zrotation
									JOINT finger5-2.L
									{
										OFFSET 0.005234 -0.007322 -0.016539
										CHANNELS 3 Xrotation Yrotation Zrotation
										JOINT finger5-3.L
										{
											OFFSET 0.001524 -0.005484 -0.012548
											CHANNELS 3 Xrotation Yrotation Zrotation
											End Site
											{
												OFFSET 0.002248 -0.006725 -0.016024
											}
										}
									}
								}
								JOINT finger1-1.L
								{
									OFFSET 0.000927 -0.039280 -0.005363
									CHANNELS 3 Xrotation Yrotation Zrotation
									JOINT finger1-2.L
									{
										OFFSET -0.018386 -0.018805 -0.006895
										CHANNELS 3 Xrotation Yrotation Zrotation
										JOINT finger1-3.L
										{
											OFFSET -0.010991 -0.028095 -0.011249
											CHANNELS 3 Xrotation Yrotation Zrotation
											End Site
											{
												OFFSET -0.004839 -0.019091 -0.014527
											}
										}
									}
								}
							}
						}
					}
				}
			}
		}
	}
	JOINT upperleg01.R
	{
		OFFSET -0.087495 -0.048056 0.004242
		CHANNELS 6 Xposition Yposition Zposition Xrotation Yrotation Zrotation
		JOINT lowerleg01.R
		{
			OFFSET -0.034522 -0.027831 -0.333803
			CHANNELS 6 Xposition Yposition Zposition Xrotation Yrotation Zrotation
			JOINT foot.R
			{
				OFFSET -0.037458 0.009412 -0.349633
				CHANNELS 3 Xrotation Yrotation Zrotation
				JOINT toe1-1.R
				{
					OFFSET -0.003290 -0.101211 -0.050981
					CHANNELS 6 Xposition Yposition Zposition Xrotation Yrotation Zrotation
					End Site
					{
						OFFSET 0.000524 -0.066142 0.003009
					}
				}
			}
		}
	}
	JOINT upperleg01.L
	{
		OFFSET 0.087495 -0.048056 0.004242
		CHANNELS 6 Xposition Yposition Zposition Xrotation Yrotation Zrotation
		JOINT lowerleg01.L
		{
			OFFSET 0.034522 -0.027831 -0.333803
			CHANNELS 6 Xposition Yposition Zposition Xrotation Yrotation Zrotation
			JOINT foot.L
			{
				OFFSET 0.037458 0.009412 -0.349633
				CHANNELS 3 Xrotation Yrotation Zrotation
				JOINT toe1-1.L
				{
					OFFSET 0.003290 -0.101211 -0.050981
					CHANNELS 6 Xposition Yposition Zposition Xrotation Yrotation Zrotation
					End Site
					{
						OFFSET -0.000524 -0.066142 0.003009
					}
				}
			}
		}
	}
}
MOTION
Frames: 7
Frame Time:	0.016667
0.0859 -0.2103 0.7429 -0.2306 -13.8134 -114.0776 -0.0007 -0.0323 0.0781 1.7074 2.5885 2.0512 -0.0009 -0.0015 0.1036 0.2184 0.1507 2.3397 0 0 0 0 -0.0474 0.1654 15.8313 2.6103 12.1824 -50.6991 -1.2598 0.0738 0 -0.0436 0.0633 0 -0.0001 0 2.5911 -0.2077 -9.1217 0 0 0.0001 2.7423 -0.1992 -8.2631 0 0 0.0001 -0.0184 -0.0575 0.1082 -0.7447 0.6663 3.8423 -0.1356 -0.0037 -0.0169 -48.3427 -7.6001 31.7968 -0.1336 0.0018 -0.153 -46.8862 -17.5664 36.8681 -0.1086 -0.1549 -0.1037 -48.6642 26.4058 10.9234 5.6061 -6.6471 -11.7805 9.1528 -8.8736 5.0042 12.7681 -9.964 7.1456 -2.4905 -1.2766 -0.7824 14.0091 -17.8754 9.2586 7.1418 -12.0052 3.0752 -6.5939 0.2579 1.2485 11.693 -18.2112 4.7064 4.6939 -13.1504 1.5636 -11.3133 -3.6374 1.9387 7.8516 -15.2178 -0.5095 7.4851 -16.1451 0.248 -8.3249 -36.2908 -24.0597 3.4647 2.9876 -3.783 -8.3033 2.5275 -8.9023 0.0184 -0.0575 0.1065 0.0811 3.2908 0.3391 0.1356 -0.0037 -0.0169 31.6218 24.3693 5.7929 0.1336 0.0017 -0.1531 -6.8092 7.0049 -15.1699 0.1086 -0.1548 -0.1038 -17.0318 -48.0365 -8.7165 25.1975 18.2466 -8.5846 28.7684 16.0939 -23.6033 34.0716 16.6365 -27.4911 2.6194 6.9108 -4.1435 18.576 21.4417 -14.4824 13.639 18.4434 -10.501 -1.4852 7.3535 -5.3457 16.4971 23.8789 -10.0746 10.6365 21.3817 -7.9823 -6.422 11.9879 -5.363 11.9861 22.3428 -3.807 13.1308 25.2478 -6.071 0.2361 26.5854 33.5777 20.0309 -14.3956 39.8642 14.0502 -20.2543 51.6687 -0.0875 -0.0481 0.0042 -1.3856 -1.7893 -24.5828 -0.0345 -0.0278 -0.3339 -6.2378 -0.2457 0.6501 9.6795 -18.4037 -7.8035 -0.0033 -0.1012 -0.051 -9.1207 -0.5242 1.1345 0.0875 -0.0481 0.0042 -28.7125 -0.679 2.8974 0.0345 -0.0278 -0.3338 18.5352 -0.8076 2.1024 -3.6076 -6.0947 3.5347 0.0033 -0.1012 -0.051 0 0 0 
0.086 -0.2096 0.7419 -0.1655 -13.0417 -114.1033 -0.0007 -0.0323 0.0781 1.6548 2.5292 2.0775 -0.0009 -0.0015 0.1035 0.2294 0.1278 2.3649 0 0 0 0 -0.0474 0.1654 15.857 2.5377 11.8219 -49.565 -1.5083 0.3222 0 -0.0436 0.0633 0 -0.0001 0 2.5876 -0.2041 -8.9776 0 0 0 2.735 -0.195 -8.1131 0 0 0.0001 -0.0184 -0.0575 0.1082 -0.7609 0.631 3.9211 -0.1356 -0.0037 -0.0169 -48.152 -7.6016 31.6572 -0.1336 0.0018 -0.153 -46.5765 -17.3789 36.4609 -0.1086 -0.1549 -0.1037 -47.9661 25.7375 9.8515 5.5985 -6.6351 -11.7953 9.1507 -8.8723 5.0022 12.7425 -9.9504 7.1221 -2.4935 -1.2632 -0.7928 14.0048 -17.8716 9.2539 7.1235 -11.9838 3.0546 -6.6021 0.2733 1.2414 11.6863 -18.2021 4.6992 4.6782 -13.1249 1.547 -11.3221 -3.6241 1.9345 7.8447 -15.2042 -0.5164 7.471 -16.1183 0.2339 -8.3128 -36.285 -24.0604 3.4633 2.9847 -3.7767 -8.3097 2.5112 -8.878 0.0184 -0.0575 0.1065 0.0834 3.2908 0.3491 0.1356 -0.0037 -0.0169 31.366 23.6518 5.4965 0.1336 0.0017 -0.1531 -6.8539 6.89 -15.2958 0.1086 -0.1548 -0.1038 -16.7895 -48.2308 -8.8497 26.283 18.6908 -9.7915 29.824 16.3077 -24.5885 35.0993 16.7727 -28.4534 2.5259 6.8086 -4.0526 18.4778 21.3687 -14.3752 13.5476 18.3631 -10.4011 -1.5754 7.2413 -5.2836 16.4117 23.7859 -9.9836 10.5577 21.2851 -7.9009 -6.495 11.8965 -5.3225 11.9299 22.254 -3.751 13.0718 25.1643 -6.0123 0.236 26.5853 33.5778 20.0309 -14.3957 39.8643 14.0502 -20.2544 51.6687 -0.0875 -0.0481 0.0042 -0.5949 -1.6285 -24.6187 -0.0345 -0.0278 -0.3339 -6.2379 -0.2457 0.65 9.0149 -18.239 -7.7685 -0.0033 -0.1012 -0.051 -8.6456 -0.4412 0.9645 0.0875 -0.0481 0.0042 -27.9522 -0.5156 3.0557 0.0345 -0.0278 -0.3338 18.5448 -0.8386 2.1076 -3.6547 -5.9858 3.5302 0.0033 -0.1012 -0.051 -0.0001 0 0 
0.0862 -0.2088 0.7409 -0.0971 -12.0728 -114.1151 -0.0007 -0.0324 0.0779 1.6168 2.4579 2.1157 -0.0009 -0.0015 0.1033 0.2193 0.0896 2.4051 0 0 0 0 -0.0473 0.1653 15.8935 2.4591 11.4159 -48.1138 -1.7394 0.6564 0 -0.0436 0.0633 0 -0.0001 0 2.5697 -0.1991 -8.8111 0 0 0 2.7119 -0.1894 -7.9414 0 0 0.0001 -0.0184 -0.0575 0.1083 -0.7714 0.6016 3.9691 -0.1356 -0.0037 -0.0169 -48.0219 -7.4966 31.4519 -0.1336 0.0018 -0.153 -46.1869 -17.1487 35.8784 -0.1086 -0.1549 -0.1037 -47.3993 24.7271 8.7877 5.5845 -6.612 -11.8238 9.1461 -8.8697 4.9981 12.6946 -9.9248 7.078 -2.4992 -1.237 -0.8133 13.9961 -17.8637 9.2443 7.0887 -11.9431 3.0155 -6.6178 0.3035 1.2274 11.6733 -18.1841 4.685 4.6481 -13.0761 1.5155 -11.3388 -3.598 1.9259 7.8311 -15.1775 -0.5299 7.4441 -16.0671 0.207 -8.2901 -36.2746 -24.0599 3.4599 2.978 -3.7619 -8.3222 2.4789 -8.8299 0.0184 -0.0575 0.1065 0.0853 3.2907 0.3576 0.1356 -0.0037 -0.0169 30.6748 23.0856 6.0563 0.1336 0.0017 -0.1531 -8.0168 7.0472 -16.0556 0.1086 -0.1548 -0.1038 -14.7903 -46.9032 -7.0173 27.421 19.4036 -11.6101 31.2303 16.5641 -25.9019 36.4607 16.9273 -29.7286 2.3484 6.6133 -3.8799 18.2912 21.2293 -14.1716 13.3738 18.2097 -10.211 -1.7467 7.0265 -5.1653 16.2493 23.6079 -9.8106 10.4074 21.1002 -7.7456 -6.6335 11.7211 -5.2453 11.8231 22.0841 -3.6445 12.959 25.0042 -5.9001 0.2361 26.5853 33.5777 20.0308 -14.3956 39.8643 14.0503 -20.2544 51.6687 -0.0875 -0.0481 0.0042 0.3667 -1.4162 -24.709 -0.0345 -0.0278 -0.3339 -6.2378 -0.2457 0.65 8.2674 -17.9704 -7.7589 -0.0033 -0.1012 -0.051 -8.1194 -0.3621 0.799 0.0875 -0.0481 0.0042 -26.9267 -0.2877 3.2565 0.0345 -0.0278 -0.3338 18.3746 -0.8729 2.0921 -3.6094 -5.8404 3.5186 0.0033 -0.1012 -0.051 0 0 0 
0.0864 -0.2082 0.7401 -0.0567 -11.2945 -114.1005 -0.0007 -0.0324 0.0778 1.5826 2.4015 2.1462 -0.0009 -0.0015 0.1032 0.1997 0.0593 2.4377 0 0 0 0 -0.0473 0.1652 15.9254 2.4014 11.1084 -46.9159 -1.8772 0.9183 0 -0.0436 0.0633 0 -0.0001 0 2.5495 -0.1945 -8.6822 0 -0.0001 0.0001 2.6876 -0.1845 -7.8091 0 0 0.0001 -0.0184 -0.0575 0.1083 -0.7774 0.574 3.9925 -0.1356 -0.0037 -0.0169 -47.912 -7.3759 31.2588 -0.1336 0.0018 -0.153 -45.8839 -16.9515 35.4085 -0.1086 -0.1549 -0.1037 -47.0606 23.9487 8.0934 5.5763 -6.5997 -11.8389 9.1437 -8.8682 4.9958 12.6684 -9.9108 7.054 -2.5031 -1.2229 -0.8242 13.9914 -17.8593 9.2391 7.0696 -11.9207 2.994 -6.627 0.3198 1.2199 11.6661 -18.1743 4.6772 4.6316 -13.0492 1.4981 -11.3485 -3.5839 1.9214 7.8237 -15.1629 -0.5374 7.4293 -16.039 0.1922 -8.2787 -36.2692 -24.0606 3.4579 2.974 -3.7532 -8.3293 2.4607 -8.8028 0.0184 -0.0575 0.1065 0.0856 3.2906 0.3538 0.1356 -0.0037 -0.0169 30.1052 22.5849 6.2979 0.1336 0.0017 -0.1531 -8.713 7.1316 -16.4459 0.1086 -0.1548 -0.1038 -13.5422 -46.063 -5.9356 27.8809 19.6621 -12.3081 31.7774 16.6552 -26.413 36.9858 16.979 -30.2206 2.2505 6.5063 -3.7858 18.1894 21.1526 -14.0605 13.2788 18.1253 -10.1071 -1.8412 6.9087 -5.1008 16.1606 23.5102 -9.716 10.3252 20.9984 -7.6606 -6.7103 11.6247 -5.2031 11.7644 21.9906 -3.5861 12.8971 24.9159 -5.8385 0.2361 26.5853 33.5778 20.0309 -14.3957 39.8643 14.0502 -20.2544 51.6687 -0.0875 -0.0481 0.0042 1.1375 -1.2304 -24.8283 -0.0345 -0.0278 -0.3339 -6.2378 -0.2457 0.65 7.671 -17.7881 -7.7621 -0.0033 -0.1012 -0.051 -7.7033 -0.3017 0.6709 0.0875 -0.0481 0.0042 -26.105 -0.0748 3.4073 0.0345 -0.0278 -0.3338 18.2325 -0.9007 2.0791 -3.5687 -5.7155 3.4997 0.0033 -0.1012 -0.051 0 0 0 
0.0866 -0.2074 0.7389 -0.0258 -10.3095 -114.075 -0.0007 -0.0325 0.0778 1.5166 2.3315 2.1875 -0.001 -0.0015 0.1031 0.1677 0.0282 2.4809 0 0 0 0 -0.0473 0.1652 15.9675 2.3354 10.7655 -45.2999 -2.0161 1.2252 0 -0.0436 0.0633 0 -0.0001 0 2.5005 -0.1876 -8.5246 0 0 0 2.6321 -0.1773 -7.6484 0 0 0.0001 -0.0184 -0.0576 0.1084 -0.7801 0.5255 3.9882 -0.1356 -0.0037 -0.0169 -47.7264 -7.1746 30.9413 -0.1336 0.0018 -0.153 -45.5592 -16.6377 34.8575 -0.1086 -0.1549 -0.1037 -46.7163 23.3417 7.4927 5.5639 -6.5777 -11.8661 9.1401 -8.8661 4.9925 12.6227 -9.8864 7.0119 -2.5076 -1.1979 -0.8438 13.9838 -17.8524 9.2306 7.036 -11.8814 2.9563 -6.6411 0.3485 1.2064 11.654 -18.1578 4.6641 4.6027 -13.0021 1.4678 -11.3638 -3.559 1.9132 7.8111 -15.1378 -0.55 7.4033 -15.9895 0.1663 -8.2558 -36.2588 -24.0597 3.4545 2.9672 -3.7385 -8.3418 2.4282 -8.7545 0.0184 -0.0576 0.1065 0.083 3.2906 0.3282 0.1356 -0.0037 -0.0169 29.16 22.3152 6.7742 0.1336 0.0017 -0.1531 -9.6065 7.2277 -16.6967 0.1086 -0.1548 -0.1038 -12.7761 -45.4391 -4.9079 28.611 20.0405 -13.3761 32.6211 16.786 -27.2015 37.7935 17.0501 -30.9774 2.0748 6.311 -3.6149 18.0053 21.0133 -13.8594 13.1067 17.9717 -9.9188 -2.0109 6.6935 -4.9836 16.0002 23.3324 -9.5449 10.1762 20.8131 -7.5065 -6.8484 11.448 -5.1261 11.6581 21.8201 -3.4801 12.7845 24.7547 -5.7265 0.2361 26.5853 33.5777 20.0309 -14.3956 39.8643 14.0503 -20.2544 51.6687 -0.0875 -0.0481 0.0042 2.1371 -0.9836 -24.9824 -0.0345 -0.0278 -0.3339 -6.2378 -0.2457 0.6501 6.6784 -17.5674 -7.7415 -0.0033 -0.1012 -0.051 -6.9359 -0.1899 0.4273 0.0875 -0.0481 0.0042 -25.1435 0.2137 3.5858 0.0345 -0.0278 -0.3338 18.1773 -0.9327 2.0769 -3.5677 -5.5389 3.4712 0.0033 -0.1012 -0.051 0 0 0 
0.0866 -0.2067 0.738 0.0139 -9.4743 -114.0583 -0.0007 -0.0325 0.0777 1.4691 2.2729 2.2222 -0.001 -0.0015 0.103 0.1398 -0.0061 2.5177 0 0 0 0 -0.0472 0.1652 16.0017 2.2879 10.4927 -43.91 -2.1358 1.4828 0 -0.0436 0.0633 0 -0.0001 0 2.4477 -0.1809 -8.4003 0 0 0 2.5736 -0.1704 -7.5221 0 0 0 -0.0184 -0.0576 0.1084 -0.7805 0.4733 3.969 -0.1356 -0.0037 -0.0169 -47.5226 -6.9737 30.6417 -0.1336 0.0018 -0.153 -45.3439 -16.3827 34.4636 -0.1086 -0.1549 -0.1037 -46.3773 22.962 7.0233 5.5574 -6.5664 -11.88 9.1385 -8.8652 4.9911 12.5987 -9.8735 6.9899 -2.5101 -1.1852 -0.8537 13.9801 -17.8491 9.2265 7.0184 -11.8607 2.9365 -6.6487 0.3633 1.1995 11.6479 -18.1494 4.6574 4.5874 -12.9773 1.4518 -11.3719 -3.5463 1.9091 7.8045 -15.1249 -0.5566 7.3897 -15.9635 0.1527 -8.244 -36.2533 -24.0597 3.4527 2.9637 -3.7308 -8.3485 2.4108 -8.7286 0.0184 -0.0576 0.1066 0.0802 3.2906 0.304 0.1356 -0.0037 -0.0169 28.3974 22.2115 7.1807 0.1336 0.0017 -0.1531 -10.2917 7.3025 -16.8274 0.1086 -0.1548 -0.1038 -12.4202 -45.0974 -4.218 29.0535 20.2509 -13.9986 33.1149 16.8573 -27.6631 38.2691 17.0871 -31.423 1.9725 6.1972 -3.5158 17.8981 20.9316 -13.7423 13.0065 17.8816 -9.809 -2.1091 6.5676 -4.9153 15.9071 23.2285 -9.4455 10.0894 20.7045 -7.4168 -6.9279 11.3447 -5.0814 11.5966 21.7211 -3.4188 12.7191 24.6605 -5.6615 0.2361 26.5854 33.5777 20.0309 -14.3956 39.8643 14.0502 -20.2544 51.6688 -0.0875 -0.0481 0.0042 2.9847 -0.769 -25.1228 -0.0345 -0.0278 -0.3338 -6.2378 -0.2457 0.65 6.0455 -17.4119 -7.7452 -0.0033 -0.1012 -0.051 -6.4944 -0.1361 0.3083 0.0875 -0.0481 0.0042 -24.2693 0.4492 3.7415 0.0345 -0.0278 -0.3338 18.0696 -0.9566 2.0674 -3.5529 -5.3591 3.4443 0.0033 -0.1012 -0.051 0 0 0 
0.0864 -0.2059 0.7367 0.0578 -8.4042 -114.0631 -0.0008 -0.0325 0.0776 1.3977 2.2009 2.2663 -0.001 -0.0015 0.103 0.1275 -0.0437 2.5625 0 0 0 0 -0.0472 0.1652 16.0341 2.2371 10.1986 -42.1004 -2.2785 1.7856 0 -0.0436 0.0633 0 -0.0001 0 2.3584 -0.1715 -8.2444 0 0 0 2.4762 -0.1609 -7.3644 0 0 0 -0.0184 -0.0576 0.1085 -0.7662 0.4197 3.8697 -0.1356 -0.0037 -0.0169 -47.3643 -6.5658 30.2166 -0.1336 0.0018 -0.153 -45.1198 -16.0623 33.9545 -0.1086 -0.1549 -0.1037 -45.7095 22.376 6.1866 5.547 -6.5463 -11.905 9.1363 -8.8639 4.9891 12.5563 -9.8507 6.9509 -2.513 -1.1625 -0.8716 13.9742 -17.8438 9.22 6.9871 -11.8238 2.9013 -6.6609 0.3894 1.1871 11.6375 -18.1351 4.6461 4.5603 -12.9332 1.4234 -11.3853 -3.5239 1.9017 7.7931 -15.1024 -0.568 7.3654 -15.9172 0.1285 -8.2211 -36.2428 -24.0592 3.4496 2.9575 -3.7173 -8.3607 2.3792 -8.6817 0.0184 -0.0576 0.1066 0.0773 3.2906 0.2761 0.1356 -0.0037 -0.0169 27.4727 21.9852 7.5161 0.1336 0.0017 -0.1531 -11.0075 7.3908 -16.8855 0.1086 -0.1548 -0.1038 -12.0214 -44.5417 -3.5361 29.6098 20.539 -14.8465 33.7721 16.9461 -28.2776 38.8958 17.1304 -32.0104 1.7757 5.9755 -3.3239 17.6906 20.7725 -13.5156 12.8123 17.7061 -9.5963 -2.297 6.3222 -4.7828 15.7271 23.0266 -9.2534 9.9213 20.4931 -7.2429 -7.0796 11.143 -4.9947 11.4779 21.5292 -3.3005 12.5924 24.4774 -5.5354 0.2361 26.5853 33.5778 20.0309 -14.3956 39.8643 14.0502 -20.2544 51.6687 -0.0875 -0.0481 0.0042 4.0406 -0.4749 -25.3185 -0.0345 -0.0278 -0.3338 -6.2378 -0.2457 0.65 5.2882 -17.2493 -7.7544 -0.0033 -0.1012 -0.051 -5.985 -0.0758 0.1717 0.0875 -0.0481 0.0042 -23.2299 0.7359 3.9535 0.0345 -0.0278 -0.3338 18.0875 -0.9866 2.0734 -3.6338 -5.0305 3.3939 0.0033 -0.1012 -0.051 0 0 0 
